<svg xmlns="http://www.w3.org/2000/svg" viewBox="0 0 592.9 511.1"><g id="Capa_2" data-name="Capa 2"><path d="M447.1,38H110A54.8,54.8,0,0,0,55.3,92.7V423.9A54.8,54.8,0,0,0,110,478.6H447.1a54.8,54.8,0,0,0,54.8-54.7V92.7A54.9,54.9,0,0,0,447.1,38Zm34.8,385.9a34.7,34.7,0,0,1-34.8,34.7H435.6V367.2h-20v91.4H361.4V415.1h-20v43.5H288V437H268v21.6H214V446H194v12.6H139.7V434.2h-20v24.4H110a34.7,34.7,0,0,1-34.7-34.7V92.7A34.8,34.8,0,0,1,110,58h9.7V269.9h20V58H194v62.9h20V58h54V68h20V58h51.7V88.8h20V58h54.2V182.2h20V58h13.2a34.8,34.8,0,0,1,34.8,34.7Z"/><path d="M294.7,234.7a14.5,14.5,0,1,0-14.5-14.4A14.4,14.4,0,0,0,294.7,234.7Z"/><path d="M404.2,197.4c-8.2-4.8-14.6-8.5-18-14.4s-6.7-14.3-10.3-23.8c-6.1-15.7-12.4-31.9-20.4-41-13.9-15.9-56.9-36.9-79.5-30.9-49.4,13-67.2,71.3-81.5,118.2-5.7,18.4-11,35.9-17.2,47-5,8.8-16.6,21.1-28.9,34-28.6,30.3-58.2,61.7-45.7,88.1,17.4,37.1,56,48,97.5,48,38.8,0,80.2-9.5,109.5-16.3l15.1-3.4c17.1-3.7,41.5-16.2,65.1-33.5,25.5-18.6,45.9-39.3,57.6-58.3,10-16.2,13.4-30.9,10.1-43.7C445.7,221.5,421.7,207.6,404.2,197.4Zm26.3,103.2c-22.1,36-79.9,76.2-109.9,82.7l-15.4,3.5c-28.1,6.5-68.6,15.8-105,15.8s-66.3-8.6-79.4-36.5c-3.3-6.9,2.7-18.1,8.2-26.3,8.6-12.7,21.5-26.3,34-39.5s25.5-27,31.7-38c7.3-13,12.9-31.4,18.9-51,13.6-44.3,28.9-94.5,67.5-104.7,13.2-3.5,48.7,12.6,59.4,24.8,5.7,6.5,11.5,21.6,16.7,35,4,10.3,7.7,19.9,11.7,26.7,6,10.4,15.4,15.8,25.3,21.6,16,9.3,34.2,19.9,44,57.7C440.1,279.6,437.4,289.4,430.5,300.6Z"/><path d="M368.3,232.1c-4.7-3.4-10.1-7.2-11.5-9.9s-3.8-9.5-5.8-15.4c-3.4-10.2-7-20.8-11.9-27.3-15.7-20.4-35.5-29.3-56.1-25.1a13.1,13.1,0,0,0-8.3,1.5c-30.2,18-41.3,81.9-44.6,108.6-1.1,8-15.4,21.8-26.9,32.8-19.5,18.7-39.7,38.1-31.5,57.5,6.2,14.7,24.8,19.2,47.6,19.2,14.8,0,31.4-1.9,47.4-4.1l4.9-.6c19.9-2.6,69-24.5,74.6-27l.5-.2.6-.3c1.9-1.2,47.8-29.6,47.8-71C395.1,251.3,379.6,240.2,368.3,232.1Zm-31,92.3c-14.8,6.6-54.1,23.2-68.2,25.1l-5,.6c-12.3,1.7-30.8,4.1-47.1,3.9s-25.6-3.9-26.9-7c-2.8-6.7,15.8-24.6,26.9-35.2,15.9-15.3,31-29.7,32.9-44.8,5.8-45.8,18.5-81.4,32.9-92.5a13.1,13.1,0,0,0,3.3-.3c16.7-3.9,29.4,7.3,37.1,17.4,2.9,3.9,6.2,13.7,8.9,21.6s4.5,13.6,7,18.3c3.6,6.9,10.4,11.7,17.5,16.8,11.2,8,18.5,13.9,18.5,22.5C375.1,299.1,341.7,321.6,337.3,324.4Z"/><path d="M297.8,277.1l22.4-14.3L309.4,246l-22.7,14.5c-1.6,1.1-10.5,5.4-17.7,8.8l8.4,18.1C281.2,285.6,294.1,279.6,297.8,277.1Z"/><path d="M302.2,296.8c-2.8,1.2-10.3,4.7-33.6,16.5l9.1,17.9c13.4-6.9,28.6-14.4,31.6-15.7s6.3-2.9,35.5-27.2L332,272.9C320,282.9,305.6,294.5,302.2,296.8Z"/></g></svg>