<svg xmlns="http://www.w3.org/2000/svg" viewBox="0 0 592.9 511.1"><defs><style>.cls-1{fill:#fff;}.cls-2{fill:#030303;}.cls-3{fill:#2d2c31;}.cls-4{fill:#403e43;}.cls-5{fill:#030304;}</style></defs><g id="Capa_2" data-name="Capa 2"><path class="cls-1" d="M242.9,488.6c-59.6,0-119.2-.3-178.7.3-10,.1-11.9-1.9-11.9-11.9q.6-222.7,0-445.5c0-10,1.9-11.9,11.9-11.9q222.8.6,445.5,0c10,0,12,1.9,11.9,11.9-.6,68.8-.3,137.7-.3,206.5-12.6.5-17.4-11.5-26.5-16.7-19.3-11.1-38.4-22.3-66.9-25,14.2,12.3,27.8,12.8,39.1,18.3,16.6,8,37.3,14.5,37.9,36.2.7,23.3-20.3,31.7-38.2,38.3-73,26.8-148.6,33.5-225.7,26.8-39.4-3.4-78.3-8.4-115.8-21.8-2.9-1,.7.4-2.2-.7-20.1-7.8-44-13.4-49-37.7s20.1-29.8,34.4-42.5c-27.5,2.2-43.9,17.9-44.8,43.8-2,54.1,18.9,100.8,48.6,144.6,28.4,41.8,67.1,67.5,117.1,75.9,4.5.8,9,1.9,12.9,4.7C244.2,484.2,244.4,486.3,242.9,488.6Z"/><path class="cls-2" d="M241.7,484.6c-49.8-4.8-91.5-24.3-123-64.6C81.3,371.9,56.6,319.3,57.3,257.1c.2-24.8,30.6-56.3,54.6-57.1,4.1-.2,8.1.3,9.8,4.2s1.5,9.5-3,12.4-11,5.4-16.3,8.5c-11.1,6.8-25.9,12.5-25.4,27.3s15,20.5,26.4,26.6c22,11.7,45.9,18,70.1,22.3,88.4,15.8,176.5,15,263.7-7.7,17.2-4.5,33.8-10.8,48.5-21,21.7-14.8,21.6-27.3-.7-41.8-15.6-10.2-33-16.4-50.9-21.1-7.4-2-17.1-4.3-13.8-14.5s11.3-6.6,19.4-4.5c31.5,8.4,60.7,20.6,81.6,47.3v32.5c-4.9,7.5-1.3,15.8-2.4,23.7-.4,72.5-61.5,159.4-129.3,184.9-19.1,7.2-39.4,4.3-58.6,9.5H266.1C258.6,483.1,249.3,488.8,241.7,484.6Z"/><path class="cls-1" d="M331,488.6c8.1-7.5,18.9-4.4,28.3-6.7,80.9-20.4,149.2-100.7,158-186.8.3-3.2,1.7-3.7,4-1.4,0,61.1-.3,122.2.3,183.3.1,10-1.9,12-11.9,11.9C450.1,488.3,390.6,488.6,331,488.6Z"/><path class="cls-3" d="M521.3,293.7l-1.7,1.5h-2.3c-.8-8.5-3.4-17.4,4-24.6Z"/><path class="cls-4" d="M241.7,484.6c8.5-1.3,17.2-3,24.4,4H242.9Z"/><path class="cls-5" d="M173.5,94.4C210.8,45,246.3,39.3,296.8,73.6c47.1,32.1,81.3,75.2,108.2,124.8,6.6,12.1,12.9,24.5,20.2,36.3,14.3,23.1,14.2,24.8-11.8,34.5-67.6,25.3-136.2,35.6-204.7,5.2C167,256,133,229,131.5,177.3c-.6-21.2,5.6-40.3,22.6-53.2,10.3-7.8,5.9-12.3,1-19.7-12.4-18.8-22.5-38.8-23.4-61.9-.2-7.1-3.2-17,8.8-17.6,10.4-.6,8.9,8.1,10,14.8C153.8,59.6,160.3,78.1,173.5,94.4Z"/><path class="cls-1" d="M82.2,293.8c137.9,51.7,276.3,51.4,414.1.1C476.2,403.3,411.1,470,290.6,470S104.8,408.6,82.2,293.8Z"/><path class="cls-1" d="M303.6,271.5c-54.4.5-98.3-10.6-132.5-46.8-18.8-19.8-26.7-43.3-16.2-70.2,8.5-21.6,19.7-23.8,36.2-8,34.8,33.3,74.4,60,116.4,83.3,6.9,3.9,15.8,15.3,22.9,1.4,5.6-11-6-13.8-13-17.8-38.1-22.1-75.1-45.8-107.2-76.3-9.7-9.1-26.4-15.9-16-35.5s33-34.1,52.8-29.9c12.1,2.6,23.3,7.9,33.8,14.6C340,123.7,374,181.6,406.6,240.7c5.6,10.2-2.9,9.5-7.9,11.4C366,264.6,332.5,272.6,303.6,271.5Z"/></g></svg>