<svg xmlns="http://www.w3.org/2000/svg" viewBox="0 0 592.9 511.1"><defs><style>.cls-1{fill:#fff;}</style></defs><g id="Capa_2" data-name="Capa 2"><path class="cls-1" d="M515.7,208.3c-7.7-3.6-14.5-15.2-16.3-24.2-12.2-61-49.5-98.2-107.1-117.1C337,48.9,280.5,47.6,224.1,59.2,151.7,74.1,100.8,112.9,87.3,190.4c-1.1,6.4-6.7,15.1-12.4,17.3-20.7,7.9-32.1,20.9-26.4,43.2s24.9,25.8,45,25.8h404c19.2,0,36.6-4.6,41.8-25.8S534.8,217.5,515.7,208.3Zm-397.6-2.4c.8-47.2,22.2-81.8,62.7-100.2,74.4-33.9,151.2-33.4,225.8-.4,40.2,17.8,60.9,52.7,65.5,100.6ZM538.4,307.5C528.1,281,504.1,281,480,288.6c-12.4,3.9-24.6,8.4-37.2,10.8-38.8,7.3-77.6,17.6-116.6,19.1-32.3,1.1-64.9-8.7-97.4-13.5-45.2-6.7-90.5-13.9-135.9-19.6-20.1-2.6-38.6,2.7-45,25.2-6,20.9,4.3,33.7,23.1,42.4,5.7,2.6,11.9,9.9,12.9,15.8,8,51,21.8,63.3,74.6,63.3H427.8c55.4,0,72.3-16.2,76.6-75.6C529.9,349.5,549.2,335.5,538.4,307.5ZM434.1,402.3q-140.6.6-281.1,0c-33.3-.1-39.9-8.8-36.7-46.5H470.4C476.7,392.6,469.4,402.2,434.1,402.3Z"/><path d="M515.7,208.3c-7.7-3.6-14.5-15.2-16.3-24.2-12.2-61-49.5-98.2-107.1-117.1C337,48.9,280.5,47.6,224.1,59.2,151.7,74.1,100.8,112.9,87.3,190.4c-1.1,6.4-6.7,15.1-12.4,17.3-20.7,7.9-32.1,20.9-26.4,43.2s24.9,25.8,45,25.8h404c19.2,0,36.6-4.6,41.8-25.8S534.8,217.5,515.7,208.3Zm-397.6-2.4c.8-47.2,22.2-81.8,62.7-100.2,74.4-33.9,151.2-33.4,225.8-.4,40.2,17.8,60.9,52.7,65.5,100.6Z"/><path d="M538.4,307.5C528.1,281,504.1,281,480,288.6c-12.4,3.9-24.6,8.4-37.2,10.8-38.8,7.3-77.6,17.6-116.6,19.1-32.3,1.1-64.9-8.7-97.4-13.5-45.2-6.7-90.5-13.9-135.9-19.6-20.1-2.6-38.6,2.7-45,25.2-6,20.9,4.3,33.7,23.1,42.4,5.7,2.6,11.9,9.9,12.9,15.8,8,51,21.8,63.3,74.6,63.3H427.8c55.4,0,72.3-16.2,76.6-75.6C529.9,349.5,549.2,335.5,538.4,307.5ZM434.1,402.3q-140.6.6-281.1,0c-33.3-.1-39.9-8.8-36.7-46.5H470.4C476.7,392.6,469.4,402.2,434.1,402.3Z"/></g></svg>