<svg id="Capa_1" data-name="Capa 1" xmlns="http://www.w3.org/2000/svg" viewBox="0 0 590.9 599"><path d="M68.7,315.1c0-14.5,0-29.1-.1-43.6V188.2c.1-13.7-.1-27.3.2-41,.4-19.3,17.4-37.9,36.6-39.6,10.6-1,21.3-.6,31.9-.7H314.4a6.2,6.2,0,0,0,5-2.1c16.8-17.7,36.9-30,60.9-34.7,47.4-9.3,87,4.9,118.2,41.7,14.7,17.4,22.9,38,25.5,60.7,3.3,27.4-3.1,52.8-17.6,76.2-6.2,10-13.2,19.5-19.8,29.4a6.2,6.2,0,0,0-1.3,3.7q-.2,97.5,0,194.9c0,17-6,30.6-20.4,40.1-7.8,5.1-16.5,6.8-25.8,6.8-25-.2-50-.2-75-.2H139.3c-9.2,0-18.5-.2-27.7,0-18.3.2-35.6-12.4-41.2-30.6-1.9-6.4-1.9-13.1-1.9-19.7.1-14.5,0-28.9.1-43.3V346.7c-.1-10.5-.1-21.1-.1-31.6ZM88.4,453.2l.7.4a15,15,0,0,1,2-2.4l99-98.9,54.1-54.1c18.4-18.3,36.7-36.7,55.1-54.9,1.3-1.4,1.5-2.3.6-4-7-13.7-11.7-28.1-12.8-43.5-1.4-19.4,1.4-38.3,9.4-56.2,1.8-4.2,3.9-8.3,6.1-12.7H111.1a18.4,18.4,0,0,0-3.3.3c-12.2,2.4-19.4,11.5-19.4,24.3V453.2ZM405.7,384c1.1-3.4,1.9-6,2.8-8.6,9.7-30.7,24.9-58.5,43.7-84.5,10.9-15.2,22.3-30.2,33-45.6s17.2-30.2,19-48.1c2.4-23.1-2.2-44.5-14.7-64C466,96.5,423.6,79.6,381.4,90.3c-29.1,7.3-50.6,24.8-64.3,51.5a96.1,96.1,0,0,0-9.4,58.7c2.3,16.6,9.4,31.5,18.7,45.1,10.7,15.8,22.5,30.9,33.7,46.4C380.2,319.9,396,350,405.7,384ZM276.9,366.1,138.6,503.4H415.3ZM311.4,259l-13.6,13.6-82.2,82.2q-33.9,34.1-67.9,67.9L90.1,480.5a3.9,3.9,0,0,0-1.2,2.8c.9,9.6,8.8,18,18.3,19.8a5.3,5.3,0,0,0,5.3-1.7L327.3,286.5a15.8,15.8,0,0,1,2.4-1.5Zm-20.3,92.2.5.6L392.3,452.4q24.6,24.8,49.4,49.4a4.9,4.9,0,0,0,3.3,1.4c9.8-1.3,16.7-7.7,19.3-17.3a6.1,6.1,0,0,0-1.7-6.6q-74.1-73.8-147.9-147.8l-2-1.9C305.4,336.8,298.3,343.9,291.1,351.2Zm174-44c-22.3,30.9-38.2,64-45.1,100l45.1,46.3ZM380,368.5c-9.6-25-23.1-47-38.3-67.4l-14.6,14.5C344.5,332.9,362,350.5,380,368.5Z"/><path d="M209.8,162.4l-1.3-.9c-24.4-22-63.1-19.2-85.2,6A60.3,60.3,0,0,0,137.4,259c14,8.6,29.3,10.7,45.3,7.7,13.3-2.5,24.6-8.5,32.7-19.6,10.1-14,13-29.9,11.3-46.8-.3-3.1-1.3-3.9-4.4-3.9-17,.2-34.1.1-51.1.1h-2v23.2h32.4a5,5,0,0,1-.3,1.6c-5,12.8-13.9,20.5-27.8,22.3-20.2,2.6-37.5-12.4-40.5-30-3.7-22.1,13.2-42.8,35.5-42.9a36.3,36.3,0,0,1,22.2,7.3c1,.7,1.7,1.6,3,.3C198.9,173.1,204.2,168,209.8,162.4Z"/><path d="M209.8,162.4c-5.6,5.6-10.9,10.7-16.1,16-1.3,1.3-2,.4-3-.3a36.3,36.3,0,0,0-22.2-7.3c-22.3.1-39.2,20.8-35.5,42.9,3,17.6,20.3,32.6,40.5,30,13.9-1.8,22.8-9.5,27.8-22.3a5,5,0,0,0,.3-1.6H169.2V196.6h2c17,0,34.1.1,51.1-.1,3.1,0,4.1.8,4.4,3.9,1.7,16.9-1.2,32.8-11.3,46.8-8.1,11.1-19.4,17.1-32.7,19.6-16,3-31.3.9-45.3-7.7a60.3,60.3,0,0,1-14.1-91.5c22.1-25.2,60.8-28,85.2-6Z"/><path d="M405.5,226c-20.8.1-38.8-17.7-39.4-38.3-.7-22.5,17.9-41.1,39.4-41s39.7,17.4,39.9,38.5C445.5,208.2,428.3,225.8,405.5,226Zm20-39.1c.6-10.8-8.1-20-19.3-20.5s-19.7,8.3-20.3,19a19.8,19.8,0,0,0,19.5,20.8A19.5,19.5,0,0,0,425.5,186.9Z"/></svg>