<svg xmlns="http://www.w3.org/2000/svg" viewBox="0 0 592.9 511.1"><g id="Capa_2" data-name="Capa 2"><path d="M485.1,207.9C421.3,164.1,295.3,166,233.4,213c-25,19-43.6,43.2-45.7,76s11.2,41.3,40.2,29.1c14-5.9,25.9-5.8,38.4,2.7s23.4,11.7,36.5.1,30.2-9.5,43.6,2.4c10.1,8.8,18,11,28.9.8,15.9-14.8,33.7-14.8,49.6,0,10.9,10.2,19,8,29-.8,5.2-4.6,12.3-7.9,19.1-9.7,10.1-2.5,19.5,2,26.3,8.8s-1.4,13.6-4,19.4C480,376.1,463.6,410,448,444.3c-5,11-10.9,17.4-24,10.4l21.9-80.8c2.3-8.4,7.1-19-5.1-22.2s-13,9.9-15.3,17.4c-7.4,24.5-15.1,49-19.7,74.1-3.2,17.6-14.4,13.6-25.1,14.1-14.6.7-9.1-10.4-9.3-16.9-.6-22.6.1-45.1-.4-67.6-.2-7.9,4.5-20.7-8.9-21-15.7-.4-9.9,13.7-10.1,22-.8,23.4-.7,46.7-.1,70,.3,10.2-2.2,15.4-13.2,13.5-15.1-2.6-23.8,4.3-28.7,19.4,39.4,0,77.9-1.4,116.3.6,21.9,1.2,32.5-6,41.6-25.8,21.4-46.8,39.8-95.2,67.5-139V269C521.3,246.5,508,223.6,485.1,207.9ZM501,298.5c-2.8-1.6-6-2.3-8.8-3.8-22.6-12.2-41.2,17.7-62.5,6.8s-41.1-11.8-60.9,1.7c-5.6,3.8-9.7,3.5-15-.1s-11.2-6.1-17.1-8.7c-21.5-9.6-39.5,15.4-58,8.4s-37.1-13.8-57.2-4.3c-3.8,1.8-8.4,7.5-12,1.3-2.2-3.6-2.1-9.4-1.1-13.7,7.3-29.8,25.9-50.8,52.3-65.6s65.8-23.9,108.6-23.8c30.8,2.2,65.9,5.5,97.2,24.2,25.2,15.2,42.8,36.1,48.3,65.6C516.7,296.7,517.6,308.2,501,298.5Z"/><path d="M254,341.5c-48.1-.3-96.3.2-144.4-.2-18.2-.1-32.7,7-44.2,20.3S52,388,52,403.9c.2,53.5,18.7,72.8,71.4,72.8h57.8c24.1,0,48.1.2,72.2-.1,39.3-.4,59.7-23.6,59.8-67.2S293.1,341.8,254,341.5Zm-4.3,115.8c-45,.1-90.1.2-135.1-.1-24-.1-38.7-11.7-42.7-37.5H293.6C288.9,446.4,273.7,457.2,249.7,457.3ZM72.2,398.7c2.8-24.6,16.5-37.2,39.5-37.6q71.1-1.2,142.3,0c22,.4,35.4,12.6,39.6,37.6Z"/><path d="M94.2,306.3c3,17.3,10.4,19.2,24.8,13.5a75.4,75.4,0,0,1-2.7-8.9c-2.7-13.4-11.6-30.9-6.3-39.1,7.3-11.3,24.4,1.2,37.4,1.9,23.3,1.1,23.3,1.7,27.3-18.4-27.5-4.3-56-3.9-81.1-18.9-29.2-17.5-29.2-53,.8-69.2a75.2,75.2,0,0,1,27.4-8.3c11-1.1,17-3.3,18.3-16.4,2.3-22.3,16.2-37.7,35.6-48.3,11.3-6.1,25.7-9.9,32.8-19.2,15-19.4,24.5-9.2,37.7.9,18,13.8,20,40.4,36,51.1s43.8,9,61.9,23.4c10.6,8.4,21,8.8,35.3,6-17.4-24.3-40.3-35.9-66.6-41.8-11.5-2.6-19.3-6.7-24.9-18.7-12.8-27-36.7-44.1-61.3-59.7-7.7-4.9-17-7.1-19.2,3.9-3.6,18.2-18,23.4-31.3,30.2-21.2,10.8-41.8,23.9-49.6,46.7-5.8,16.6-15,22.1-30.3,27.1C55.9,157,35.9,205.9,62.1,234,82.5,255.8,89.5,280.1,94.2,306.3Z"/></g></svg>