<svg xmlns="http://www.w3.org/2000/svg" viewBox="0 0 592.9 511.1"><defs><style>.cls-1{fill:#242326;}</style></defs><g id="Capa_2" data-name="Capa 2"><path class="cls-1" d="M497,382.2c-3-14.6-15.6-20.9-29.5-23.3-11.5-2-9.1-7.5-9.6-17.4-1-23.3,12.8-49.9-12.8-70.1l44.5-10.5c3.9-1,7.6-2.7,7.5-7.6s-4.7-8.3-9.5-7.4c-19.2,3.5-21.1-8-18.4-21.7,5.2-26.6-8.3-40.6-29.4-54C377.7,130.6,316.7,89.4,256,47.7c-13.9-9.6-21.7-8.5-33.2,3.4-37.5,39.1-75.7,77.7-114.9,115-17.6,16.7-29.3,33.6-24.8,59,2.1,12.1,2,24.4-16.9,20.7-4.6-.9-10.1.1-11,6.1-1.2,7.5,5.4,8.8,10.5,10,13,3.2,26.2,5.9,40,8.9-14.7,19.9-12.5,19.9-13,42.4-.3,19.6,13.3,45.7-23.8,52.9-18.3,3.5-20.9,29.3-4.6,36.4C86,411.9,84.7,427.3,83,444.1c-1.9,18.9,5.2,24,23.9,23.8,108.4-.8,216.8-.3,325.1-.4,40.7-.1,36.7,4.9,37.2-36,.1-7-4.7-16.2,5.6-20.6C487.6,405.4,500.3,398.5,497,382.2ZM148.8,149c27-27.5,54.4-54.5,81.6-81.8,5.4-5.4,9.3-11.2,18.9-4.6,58.7,40,117.9,79.2,182.6,122.5H116.2C125,169.9,137.9,160.2,148.8,149Zm-48.2,73.9c-.9-13.5.6-20.7,18-20.6,105.2,1,210.3,1.2,315.4,0,21.2-.3,16.8,11.4,17.6,23.4,1,13.5-.5,20.9-18,20.5-52.5-1.4-105.1-.5-157.7-.5s-105.2-1.2-157.7.5C97,246.9,101.4,234.9,100.6,222.9Zm319.3,95.2c-47.9-.2-95.8-.1-143.8-.1s-94.2-.1-141.4.1c-13.5.1-27.5-1.2-26.9-18.1.5-14.5,13.1-16.3,26.2-16.9a227.8,227.8,0,0,1,81.1,10.4c46.1,14.8,90.7,9,135.6-3.4,22.9-6.3,46.2-7.1,69.9-6.9,12.7.1,23.3,3.9,23.8,16.8C445.1,315.2,433.1,318.2,419.9,318.1ZM433,353.2c-19.6,18.5-45.2,11.2-57.4-18,17.7,0,34.7-.2,51.6.2,4.7.1,12.1-3.6,13.7,4.2C442.1,345.3,436.9,349.6,433,353.2Zm-79.3-17c-4.5,19.2-17.7,26.4-32.8,26.8s-28.9-8.7-35.1-26.8Zm-87.2-.2c-6.6,18.8-19.4,28.4-37.1,26.8-14.7-1.3-28.1-8.3-30.4-26.8Zm-88.2-.8c-17.7,31.4-43.9,36.6-61.8,15.1-2.8-3.4-7.2-6.9-4.9-12.2s6.8-2.7,10.3-2.8C139.8,335.1,157.7,335.2,178.3,335.2Zm-22.5-74.1H397.1C316.4,292.5,235.4,292.5,155.8,261.1ZM451.4,438c2.9,12-4.9,14-15.2,13.9-53.4-.3-106.8-.2-160.2-.2s-105.2-.3-157.8.3c-12.5.1-19.1-2.3-17.9-16.7.9-11-1.7-20.1,16-20.5,36.8-1,73.8,1.8,110.2-.7s71.5-1.2,106.4-.5c36.6.7,73.8-8.7,110.5,1.6C459.1,419.7,449.5,430.4,451.4,438Zm28.3-51.7c-.7,6.4-6.7,8.4-11.8,10-15.4,4.7-31.4,5.8-46.1-1-9.6-4.3-17.4-4.9-26.5.4-4.5,2.6-10.9,4.4-15.9,3.5-27.5-5-55-.3-82.4-.9-38.7-.9-77.2-.5-115.8-.1-28.2.3-56.4-.5-84.7,0-9.1.2-24.6-.6-23.4-13.5,1-10.2,15.1-11.4,25.5-11.9,2.4-.1,4.7,0,6.3,0,15.1-1.8,27.8,6.4,42.4,5.9,17.6-.7,28.4-19.4,40.5-19.1s22.8,17.8,39.9,19.1c20,1.4,33.5-16.6,48.1-17.7s27.7,18.8,47.8,17.9c18-.8,29.3-20.3,41.9-18.7s23.7,19.7,41.2,18c12.3-1.3,24.5-4.3,36.9-5.3,8.4-.7,17.3-1.3,25.4,3C473.5,378.3,480.4,379.1,479.7,386.3Z"/><path class="cls-1" d="M206.1,160.2c-2.6,4.3-4.5,10.2-9.8,7.8s-12.6-7.2-12.1-15c.1-2.4,6.1-6.6,8.7-6.1C199.8,148.1,204.4,153.3,206.1,160.2Z"/><path class="cls-1" d="M227.9,123.2c-.3,3.5-5.2,6.6-8.1,9.9-6.5-5.4-14.3-8.4-13.4-16.4.5-3.8,5.5-9.4,10.3-6.9S228.5,116.3,227.9,123.2Z"/><path class="cls-1" d="M324.1,155.1c-2.9,6.3-6.7,12.6-13.9,13-4.3.2-9.6-5.6-8.4-9.5s6.3-10.8,12.8-11.8S322.3,150.4,324.1,155.1Z"/><path class="cls-1" d="M148.6,220.1c-4.3,7.6-8.3,14.2-15.7,14.7-4,.2-9-5.5-7.5-9.9s6.5-11.4,12.9-11.8C141.6,213,145.2,217.6,148.6,220.1Z"/><path class="cls-1" d="M389.2,236.3c-6.6-5-13.5-8.4-13.4-16.2.1-2.5,5.4-7.1,8-6.9a15,15,0,0,1,13.5,13.1C397.7,229.2,392.1,232.9,389.2,236.3Z"/><path class="cls-1" d="M212.1,441c-6.1-2.3-11.1-6.4-12.7-12.5s3.6-8.9,8.1-8.7c6.7.3,11.2,5.8,12.7,11.7S217.2,439.7,212.1,441Z"/></g></svg>