<svg xmlns="http://www.w3.org/2000/svg" viewBox="0 0 592.9 511.1"><defs><style>.cls-1{fill:#262427;}.cls-2{fill:#dcdbdd;}.cls-3{fill:#3f3d41;}.cls-4{fill:#413f42;}.cls-5{fill:#3d3b3e;}.cls-6{fill:#424043;}</style></defs><g id="Capa_6" data-name="Capa 6"><path class="cls-1" d="M473.9,184.5c-41.4-36.6-87.7-63.6-146.6-57.5-8,.8-16.9.6-24.4-2-48-16.2-58.1-14.2-89,20.4-30.9-30.9-54.5-36.7-82.3-20.5-26.1,15.2-33.2,38.8-22.9,79.1-48.5,3.2-79.4,30.6-68.2,66.8,8.5,27.1,1.4,49.4-2.9,73.7-1.3,7.3-3.3,14.4-3.9,21.7-3,38.7,5.7,48.4,44,48.4q134.3.3,268.6.1c53.5,0,107.1.3,160.6-.1,31.2-.3,46-12.4,47.1-38.2C557.2,300,531.1,235.2,473.9,184.5Zm-80-31.7c15.6,6.5,24.6,18.7,21.5,38.8l-63.6-29.3C363.5,147.3,378.7,146.4,393.9,152.8Zm-94.5,1c-21.8-1.8-42.6-3.1-67.9,3C259.6,125.2,278.7,125.4,299.4,153.8Zm-177.7,25c1.1-30.9,24.5-47.2,50.5-40.6,11.6,3,21.8,9.6,23.1,20.7s-12.6,7.7-19,11.9c-9.9,6.4-20.8,11.3-31.5,16.3-5.4,2.5-9.5,10.7-16.4,6.4S121.6,181.1,121.7,178.8Zm-62,73.6h0c0-.4.1-.8.1-1.1v-.4c.1-.9.3-1.7.4-2.5s.1-.1.1-.2l.3-1.2a5.6,5.6,0,0,1,.4-1.2l.3-1c.1-.2.2-.3.2-.5l.5-1a4.1,4.1,0,0,1,.5-.9l.9-1.6.4-.6a1,1,0,0,0,.4-.5l1.6-1.8A17.8,17.8,0,0,1,69,235l1.2-.9,1.2-.9,4.3-2.4,1.5-.7,1.7-.7,3.3-1.2,2.2-.7,1.8-.5a90.6,90.6,0,0,1,10.7-2.3h0l-8.4,11.6L71.8,259.2l-8.2,11.4q-3.9-9.3-3.9-16.8ZM482.2,394H330.1c-84.8,0-169.7-.2-254.5.2-14.7.1-23.8-.3-22.7-20.3,5.1-88,63.7-164.1,150-192s191.3.4,243.2,67.3c23.1,29.9,35.6,64,36.1,102.1C482.4,364.8,482.2,378.4,482.2,394Zm18.3-143.6c10.6,6.9,13.7,18.1,19.1,31.6C484.2,286.1,508.3,258.9,500.5,250.4Z"/><path class="cls-2" d="M96.9,224.7l-8.4,11.6,8.4-11.6Z"/><path class="cls-3" d="M108.9,336.4c-6.6.7-13.3-1.3-14.4-9s4.7-10.8,16.4-11.6c2.6-.3,9,2,10.2,9.1S115.3,335.7,108.9,336.4Z"/><path class="cls-4" d="M371.3,241.2c-1.3,8.1-7.8,8.9-14.5,8.4s-13-3.9-11.7-11.4,8.1-8.8,14.9-9.1C366.4,230.6,372.6,233,371.3,241.2Z"/><path class="cls-5" d="M285,326.5c-.5,8.2-7.8,9-13.2,10.3-8.1-1.5-13.5-4.8-12.3-12.8s6.7-8,12.7-7.9S285.6,318.1,285,326.5Z"/><path class="cls-6" d="M449.5,325c-1.2,9.3-7,11.9-13.5,11.5s-13.5-2.9-13.1-10.8,6.6-9.7,13.6-9.7S448.5,318.5,449.5,325Z"/></g></svg>