<svg xmlns="http://www.w3.org/2000/svg" viewBox="0 0 592.9 511.1"><defs><style>.cls-1{fill:#fcfcfc;}.cls-2{fill:#121113;}.cls-3{fill:#1d1c1f;}</style></defs><g id="Capa_2" data-name="Capa 2"><path class="cls-1" d="M103.7,434.8c-7.4.9-11.1,6.5-10.2,14.2s5.3,10,11.9,9.8,11.5-5.1,12.4-12.4C115.3,439.6,111.3,433.8,103.7,434.8ZM458.2,101.4A62.3,62.3,0,0,0,447,80.1l-1.5-1.8c-1.6-1.9-3.3-3.7-5.1-5.5L437,69.7l-2.4-2h0l-2.4-1.9-3.1-2.2-3.4-2.2h0L423,59.9a83.5,83.5,0,0,0-15.9-7,41.1,41.1,0,0,0-6-1.7,37.8,37.8,0,0,0-4.6-1,74.2,74.2,0,0,0-14.8-1.4c-2.6,0-5,.1-7.5.3l-1.2.2h-1.2a66.7,66.7,0,0,0-13,3.2l-1.3.5a82.8,82.8,0,0,0-11.8,5.2l-1.7.9c-7.7,4.1-17.8,8.9-10.8,20.6,5.7,9.6,13.4,5.3,21.4,1.9,38.5-16.4,62-7.4,80.4,30,3.7,7.5,6.5,16.3,17.6,12.6C465.8,119.8,460.5,109.2,458.2,101.4Zm-150-30.2C292.1,52.7,272.1,42.5,250.4,43c-62.7-.6-102.4,59.9-77.5,112.7,4.1,8.6,8,18,19.6,13.5s6.9-12.9,4.3-21.1c-10.5-33.2-3.9-57.3,19.4-72.1s49-10.3,73.8,12.8c6.3,5.9,12.5,12.9,20.8,4.4S313.9,77.9,308.2,71.2ZM160,372.7c-21.7-6-42-15-59.1-30.3-15-13.5-21.7-30-15.1-49.1s21-27.5,40.4-27.4c8.9,0,17.5.2,19.9-10.1s-6.1-12.2-12.3-16.4c-34.1-23.3-31.2-58.1,6.2-76.8,7.3-3.7,17.2-6.4,13.3-17.5s-14.8-8.4-23.2-5.9c-34.1,10-54.7,52.6-39.4,86.6,6.5,14.6,6.7,21-7.1,30.4-17.3,11.6-25.9,29.9-24.5,52-1.5,18.5,7.2,33.2,19.4,46.4,20.3,22.1,46.6,34.1,74.8,42.2,8.3,2.4,19.7,5.7,22.9-6.8S169.5,375.3,160,372.7ZM485.5,219.4c9.8-2.5,19.2-4.4,28.4-7.3,7.6-2.5,13.6-7.6,11.5-16.6s-8.3-9.4-15.7-8.4-13.9,4.7-20.9-2.1c7.1-6.1,13.4-11.4,19.5-16.9,8.2-7.3,23.7-14.4,12.8-27s-19.9,3.4-29.2,8.7c-7.2,4.1-11.4,14-22.8,13.3-.9-12.4,17.7-27.3.8-33.2-24.9-8.7-17.4,22.3-32.4,31.9-12-9.9-23.6-20.6-36.2-29.7C350.7,95.7,286.2,97,237.1,134.8c-62.1,47.9-79.2,176.7-32,238,7.1,9.2,10.2,19.4-4.5,25.4-7,2.8-16.3,6-17.3,12.9-2.6,18-10.2,26.8-29.3,25.6-6-.4-10,5.2-9.5,12.2s5.6,9.7,11.7,10.5a147.4,147.4,0,0,0,14.9.5q144.8,0,289.4-.1c9.6,0,22,3.5,26.6-8,5.6-14.2-11.3-14.1-18.2-20.2C535.9,365.9,539.9,313.4,485.5,219.4Zm-30.6,95.5c-5.4,14.5-11.2,33.9-29.9,9.2-4.3-5.6-10.9-8.1-17.3-2.1s-5.1,11.7-.8,17.8c2.4,3.4,5.1,6.6,7.6,9.9s7.3,8.4,1.6,12.5-9.1.3-12.6-3.9c-16.6-19.7-33-39.6-50.1-58.9-6.5-7.3-12.7-22-25.2-10.8s.8,19.2,6.9,27c10.8,13.8,22.3,26.9,33.6,40.2,2.8,3.2,6.3,6.8,3.9,10.8s-8.2,4.1-13.2,2.3c-12.2-4.3-21.2-12.7-29.3-22.3-19.8-23.6-39.8-46.9-58.9-71-16.7-21-36.4-30.9-64.7-20.9-2.3-93.7,90.2-153.9,168.4-111.4,18,9.7,31.9,23.7,42.2,41.2,2.5,4.3,6.8,9.7,5.8,13.4-12.2,47.8,26.6,58.2,55.5,73.7,9.5,5.1,13.5,9.5,16.3,20.5C473,286.8,461.8,296.5,454.9,314.9Z"/><path class="cls-2" d="M485.5,219.4c9.8-2.5,19.2-4.4,28.4-7.3,7.6-2.5,13.6-7.6,11.5-16.6s-8.3-9.4-15.7-8.4-13.9,4.7-20.9-2.1c7.1-6.1,13.4-11.4,19.5-16.9,8.2-7.3,23.7-14.4,12.8-27s-19.9,3.4-29.2,8.7c-7.2,4.1-11.4,14-22.8,13.3-.9-12.4,17.7-27.3.8-33.2-24.9-8.7-17.4,22.3-32.4,31.9-12-9.9-23.6-20.6-36.2-29.7C350.7,95.7,286.2,97,237.1,134.8c-62.1,47.9-79.2,176.7-32,238,7.1,9.2,10.2,19.4-4.5,25.4-7,2.8-16.3,6-17.3,12.9-2.6,18-10.2,26.8-29.3,25.6-6-.4-10,5.2-9.5,12.2s5.6,9.7,11.7,10.5a147.4,147.4,0,0,0,14.9.5q144.8,0,289.4-.1c9.6,0,22,3.5,26.6-8,5.6-14.2-11.3-14.1-18.2-20.2C535.9,365.9,539.9,313.4,485.5,219.4Zm-270.2,215c-4.6-.1-10.7,1.1-10.9-6.2s5.2-8.2,9.8-9.2c17.1-3.7,31.5,4.8,46.6,15.4C245.6,434.4,230.4,434.5,215.3,434.4ZM454.9,314.9c-5.4,14.5-11.2,33.9-29.9,9.2-4.3-5.6-10.9-8.1-17.3-2.1s-5.1,11.7-.8,17.8c2.4,3.4,5.1,6.6,7.6,9.9s7.3,8.4,1.6,12.5-9.1.3-12.6-3.9c-16.6-19.7-33-39.6-50.1-58.9-6.5-7.3-12.7-22-25.2-10.8s.8,19.2,6.9,27c10.8,13.8,22.3,26.9,33.6,40.2,2.8,3.2,6.3,6.8,3.9,10.8s-8.2,4.1-13.2,2.3c-12.2-4.3-21.2-12.7-29.3-22.3-19.8-23.6-39.8-46.9-58.9-71-16.7-21-36.4-30.9-64.7-20.9-2.3-93.7,90.2-153.9,168.4-111.4,18,9.7,31.9,23.7,42.2,41.2,2.5,4.3,6.8,9.7,5.8,13.4-12.2,47.8,26.6,58.2,55.5,73.7,9.5,5.1,13.5,9.5,16.3,20.5C473,286.8,461.8,296.5,454.9,314.9Z"/><path class="cls-3" d="M59.2,308.2c-1.5-22.1,7.1-40.4,24.4-52,13.8-9.4,13.6-15.8,7.1-30.4-15.2-34,5.3-76.6,39.4-86.6,8.4-2.5,18.9-6.5,23.2,5.9s-6,13.8-13.3,17.5c-37.4,18.7-40.3,53.5-6.2,76.8,6.2,4.2,14.4,7.2,12.3,16.4s-11,10.1-19.9,10.1c-19.4-.1-34.1,9.2-40.4,27.4s.1,35.6,15.1,49.1c17.1,15.3,37.4,24.3,59.1,30.3,9.6,2.6,19.1,5.8,16.2,17.3s-14.6,9.2-22.9,6.8c-28.2-8.1-54.5-20.1-74.8-42.2C66.3,341.4,57.6,326.7,59.2,308.2Z"/><path class="cls-3" d="M250.4,43c21.7-.5,41.7,9.7,57.8,28.2,5.7,6.7,10,14.5,2.6,22s-14.5,1.5-20.8-4.4C265.2,65.7,239.4,61.4,216.2,76s-29.9,38.9-19.4,72.1c2.6,8.2,6.4,16.9-4.3,21.1S177,164.3,173,155.7C148,102.9,187.7,42.4,250.4,43Z"/><path class="cls-3" d="M381.7,48.8c33.6-.3,67.9,22.7,76.5,52.6,2.3,7.8,7.6,18.4-5.6,22.9-11.1,3.7-13.9-5.1-17.6-12.6-18.4-37.4-41.9-46.4-80.4-30-8,3.4-15.7,7.7-21.4-1.9-7-11.7,3.1-16.5,10.8-20.6C355.6,52.9,368.1,48.5,381.7,48.8Z"/><path class="cls-3" d="M117.8,446.4c-.9,7.3-4.5,12.1-12.4,12.4S94.3,456,93.5,449s2.8-13.3,10.2-14.2S115.3,439.6,117.8,446.4Z"/><path class="cls-1" d="M260.8,434.4c-15.1,0-30.3.1-45.5,0-4.6-.1-10.7,1.1-10.9-6.2s5.2-8.2,9.8-9.2C231.3,415.3,245.7,423.8,260.8,434.4Z"/></g></svg>